<mxfile host="app.diagrams.net" modified="2024-05-23T06:47:57.285Z" agent="Mozilla/5.0 (Windows NT 10.0; Win64; x64) AppleWebKit/537.36 (KHTML, like Gecko) Chrome/125.0.0.0 Safari/537.36" etag="NbOwTDNHpxmKZwtMpqSP" version="24.4.6" type="device">
  <diagram name="Страница — 1" id="mjwLPPzygapQoilQ4j1X">
    <mxGraphModel dx="956" dy="1689" grid="1" gridSize="10" guides="1" tooltips="1" connect="1" arrows="1" fold="1" page="1" pageScale="1" pageWidth="827" pageHeight="1169" math="0" shadow="0">
      <root>
        <mxCell id="0" />
        <mxCell id="1" parent="0" />
        <mxCell id="VvSqDny1vrRmbwonDh9K-17" style="edgeStyle=orthogonalEdgeStyle;rounded=0;orthogonalLoop=1;jettySize=auto;html=1;" edge="1" parent="1" source="VvSqDny1vrRmbwonDh9K-48" target="VvSqDny1vrRmbwonDh9K-50">
          <mxGeometry relative="1" as="geometry">
            <mxPoint x="225" y="660" as="sourcePoint" />
            <mxPoint x="220.03999999999996" y="680" as="targetPoint" />
          </mxGeometry>
        </mxCell>
        <mxCell id="VvSqDny1vrRmbwonDh9K-23" value="Да" style="edgeStyle=orthogonalEdgeStyle;rounded=0;orthogonalLoop=1;jettySize=auto;html=1;" edge="1" parent="1" source="VvSqDny1vrRmbwonDh9K-51" target="VvSqDny1vrRmbwonDh9K-27">
          <mxGeometry x="-0.6154" y="10" relative="1" as="geometry">
            <mxPoint as="offset" />
            <mxPoint x="305" y="905" as="sourcePoint" />
          </mxGeometry>
        </mxCell>
        <mxCell id="VvSqDny1vrRmbwonDh9K-56" style="edgeStyle=orthogonalEdgeStyle;rounded=0;orthogonalLoop=1;jettySize=auto;html=1;exitX=0.5;exitY=1;exitDx=0;exitDy=0;" edge="1" parent="1" source="VvSqDny1vrRmbwonDh9K-27">
          <mxGeometry relative="1" as="geometry">
            <mxPoint x="220" y="980" as="targetPoint" />
            <Array as="points">
              <mxPoint x="419" y="980" />
              <mxPoint x="283" y="980" />
            </Array>
          </mxGeometry>
        </mxCell>
        <mxCell id="VvSqDny1vrRmbwonDh9K-27" value="Дозаказ необходимых запчастей" style="rounded=1;whiteSpace=wrap;html=1;fontSize=12;glass=0;strokeWidth=1;shadow=0;" vertex="1" parent="1">
          <mxGeometry x="350" y="880" width="137.5" height="65" as="geometry" />
        </mxCell>
        <mxCell id="VvSqDny1vrRmbwonDh9K-33" style="edgeStyle=orthogonalEdgeStyle;rounded=0;orthogonalLoop=1;jettySize=auto;html=1;" edge="1" parent="1" source="VvSqDny1vrRmbwonDh9K-30" target="VvSqDny1vrRmbwonDh9K-34">
          <mxGeometry relative="1" as="geometry">
            <mxPoint x="220" y="-30" as="targetPoint" />
          </mxGeometry>
        </mxCell>
        <mxCell id="VvSqDny1vrRmbwonDh9K-30" value="Начало учёта заявки" style="ellipse;whiteSpace=wrap;html=1;" vertex="1" parent="1">
          <mxGeometry x="170" y="-105" width="100" height="50" as="geometry" />
        </mxCell>
        <mxCell id="VvSqDny1vrRmbwonDh9K-31" value="&lt;div&gt;&lt;span style=&quot;font-size: 12pt; line-height: 107%;&quot;&gt;&lt;font style=&quot;&quot; face=&quot;Times New Roman&quot;&gt;Основной алгоритм&lt;br&gt;решения учёта заявок на ремонт бытовой техники&lt;/font&gt;&lt;/span&gt;&lt;span style=&quot;font-style: italic; font-size: 12pt; line-height: 107%; font-family: &amp;quot;Times New Roman&amp;quot;, serif;&quot;&gt;&amp;nbsp;&lt;/span&gt;&lt;br&gt;&lt;/div&gt;" style="text;html=1;align=center;verticalAlign=middle;resizable=0;points=[];autosize=1;strokeColor=none;fillColor=none;" vertex="1" parent="1">
          <mxGeometry x="40" y="-155" width="370" height="50" as="geometry" />
        </mxCell>
        <mxCell id="VvSqDny1vrRmbwonDh9K-39" style="edgeStyle=orthogonalEdgeStyle;rounded=0;orthogonalLoop=1;jettySize=auto;html=1;" edge="1" parent="1" source="VvSqDny1vrRmbwonDh9K-32" target="VvSqDny1vrRmbwonDh9K-36">
          <mxGeometry relative="1" as="geometry" />
        </mxCell>
        <mxCell id="VvSqDny1vrRmbwonDh9K-32" value="Клиент хочет оставить заявку" style="rounded=1;whiteSpace=wrap;html=1;" vertex="1" parent="1">
          <mxGeometry x="165" y="70" width="110" height="50" as="geometry" />
        </mxCell>
        <mxCell id="VvSqDny1vrRmbwonDh9K-35" style="edgeStyle=orthogonalEdgeStyle;rounded=0;orthogonalLoop=1;jettySize=auto;html=1;" edge="1" parent="1" source="VvSqDny1vrRmbwonDh9K-34" target="VvSqDny1vrRmbwonDh9K-32">
          <mxGeometry relative="1" as="geometry" />
        </mxCell>
        <mxCell id="VvSqDny1vrRmbwonDh9K-34" value="login, password" style="shape=parallelogram;perimeter=parallelogramPerimeter;whiteSpace=wrap;html=1;fixedSize=1;" vertex="1" parent="1">
          <mxGeometry x="165" y="-20" width="110" height="50" as="geometry" />
        </mxCell>
        <mxCell id="VvSqDny1vrRmbwonDh9K-40" style="edgeStyle=orthogonalEdgeStyle;rounded=0;orthogonalLoop=1;jettySize=auto;html=1;entryX=0.5;entryY=0;entryDx=0;entryDy=0;" edge="1" parent="1" source="VvSqDny1vrRmbwonDh9K-36" target="VvSqDny1vrRmbwonDh9K-38">
          <mxGeometry relative="1" as="geometry" />
        </mxCell>
        <mxCell id="VvSqDny1vrRmbwonDh9K-41" style="edgeStyle=orthogonalEdgeStyle;rounded=0;orthogonalLoop=1;jettySize=auto;html=1;" edge="1" parent="1" source="VvSqDny1vrRmbwonDh9K-36" target="VvSqDny1vrRmbwonDh9K-42">
          <mxGeometry relative="1" as="geometry">
            <mxPoint x="220" y="310" as="targetPoint" />
          </mxGeometry>
        </mxCell>
        <mxCell id="VvSqDny1vrRmbwonDh9K-36" value="Клиент находится в базе?" style="rhombus;whiteSpace=wrap;html=1;" vertex="1" parent="1">
          <mxGeometry x="180" y="165" width="80" height="80" as="geometry" />
        </mxCell>
        <mxCell id="VvSqDny1vrRmbwonDh9K-43" style="rounded=0;orthogonalLoop=1;jettySize=auto;html=1;exitX=0;exitY=0.5;exitDx=0;exitDy=0;edgeStyle=orthogonalEdgeStyle;" edge="1" parent="1" source="VvSqDny1vrRmbwonDh9K-38">
          <mxGeometry relative="1" as="geometry">
            <mxPoint x="220" y="260" as="targetPoint" />
          </mxGeometry>
        </mxCell>
        <mxCell id="VvSqDny1vrRmbwonDh9K-38" value="Админстратор проводит регистрацию" style="rounded=1;whiteSpace=wrap;html=1;" vertex="1" parent="1">
          <mxGeometry x="330" y="236" width="110" height="50" as="geometry" />
        </mxCell>
        <mxCell id="VvSqDny1vrRmbwonDh9K-45" style="edgeStyle=orthogonalEdgeStyle;rounded=0;orthogonalLoop=1;jettySize=auto;html=1;" edge="1" parent="1" source="VvSqDny1vrRmbwonDh9K-42" target="VvSqDny1vrRmbwonDh9K-44">
          <mxGeometry relative="1" as="geometry" />
        </mxCell>
        <mxCell id="VvSqDny1vrRmbwonDh9K-42" value="Клиент авторизовывается в систему" style="rounded=1;whiteSpace=wrap;html=1;" vertex="1" parent="1">
          <mxGeometry x="165" y="300" width="110" height="50" as="geometry" />
        </mxCell>
        <mxCell id="VvSqDny1vrRmbwonDh9K-47" style="edgeStyle=orthogonalEdgeStyle;rounded=0;orthogonalLoop=1;jettySize=auto;html=1;" edge="1" parent="1" source="VvSqDny1vrRmbwonDh9K-44" target="VvSqDny1vrRmbwonDh9K-46">
          <mxGeometry relative="1" as="geometry" />
        </mxCell>
        <mxCell id="VvSqDny1vrRmbwonDh9K-44" value="Клиент оставляет новую заявку, предоставляет информацию" style="rounded=1;whiteSpace=wrap;html=1;" vertex="1" parent="1">
          <mxGeometry x="147.5" y="380" width="145" height="50" as="geometry" />
        </mxCell>
        <mxCell id="VvSqDny1vrRmbwonDh9K-49" style="edgeStyle=orthogonalEdgeStyle;rounded=0;orthogonalLoop=1;jettySize=auto;html=1;" edge="1" parent="1" source="VvSqDny1vrRmbwonDh9K-46" target="VvSqDny1vrRmbwonDh9K-48">
          <mxGeometry relative="1" as="geometry" />
        </mxCell>
        <mxCell id="VvSqDny1vrRmbwonDh9K-46" value="Оператор регистрирует заявку" style="rounded=1;whiteSpace=wrap;html=1;" vertex="1" parent="1">
          <mxGeometry x="157.5" y="470" width="125" height="50" as="geometry" />
        </mxCell>
        <mxCell id="VvSqDny1vrRmbwonDh9K-48" value="Оператор обрабатывает заявку и назначает исполнителя" style="rounded=1;whiteSpace=wrap;html=1;" vertex="1" parent="1">
          <mxGeometry x="142.5" y="580" width="155" height="50" as="geometry" />
        </mxCell>
        <mxCell id="VvSqDny1vrRmbwonDh9K-52" style="edgeStyle=orthogonalEdgeStyle;rounded=0;orthogonalLoop=1;jettySize=auto;html=1;" edge="1" parent="1" source="VvSqDny1vrRmbwonDh9K-50" target="VvSqDny1vrRmbwonDh9K-51">
          <mxGeometry relative="1" as="geometry" />
        </mxCell>
        <mxCell id="VvSqDny1vrRmbwonDh9K-50" value="Исполнитель приступает работу" style="rounded=1;whiteSpace=wrap;html=1;" vertex="1" parent="1">
          <mxGeometry x="142.5" y="690" width="155" height="50" as="geometry" />
        </mxCell>
        <mxCell id="VvSqDny1vrRmbwonDh9K-55" style="edgeStyle=orthogonalEdgeStyle;rounded=0;orthogonalLoop=1;jettySize=auto;html=1;" edge="1" parent="1" source="VvSqDny1vrRmbwonDh9K-51" target="VvSqDny1vrRmbwonDh9K-54">
          <mxGeometry relative="1" as="geometry" />
        </mxCell>
        <mxCell id="VvSqDny1vrRmbwonDh9K-51" value="Нужны новые запчасти?" style="rhombus;whiteSpace=wrap;html=1;" vertex="1" parent="1">
          <mxGeometry x="171.57" y="830" width="96.87" height="90" as="geometry" />
        </mxCell>
        <mxCell id="VvSqDny1vrRmbwonDh9K-59" style="edgeStyle=orthogonalEdgeStyle;rounded=0;orthogonalLoop=1;jettySize=auto;html=1;" edge="1" parent="1" source="VvSqDny1vrRmbwonDh9K-54" target="VvSqDny1vrRmbwonDh9K-58">
          <mxGeometry relative="1" as="geometry" />
        </mxCell>
        <mxCell id="VvSqDny1vrRmbwonDh9K-54" value="Исполнитель завершает работу" style="rounded=1;whiteSpace=wrap;html=1;" vertex="1" parent="1">
          <mxGeometry x="157.5" y="1000" width="125" height="50" as="geometry" />
        </mxCell>
        <mxCell id="VvSqDny1vrRmbwonDh9K-57" value="Нет" style="text;html=1;align=center;verticalAlign=middle;resizable=0;points=[];autosize=1;strokeColor=none;fillColor=none;" vertex="1" parent="1">
          <mxGeometry x="171.57" y="915" width="40" height="30" as="geometry" />
        </mxCell>
        <mxCell id="VvSqDny1vrRmbwonDh9K-60" style="edgeStyle=orthogonalEdgeStyle;rounded=0;orthogonalLoop=1;jettySize=auto;html=1;" edge="1" parent="1" source="VvSqDny1vrRmbwonDh9K-58" target="VvSqDny1vrRmbwonDh9K-61">
          <mxGeometry relative="1" as="geometry">
            <mxPoint x="220" y="1169" as="targetPoint" />
          </mxGeometry>
        </mxCell>
        <mxCell id="VvSqDny1vrRmbwonDh9K-58" value="Исполнитель предоставляет отчёт о выполненной работе" style="rounded=1;whiteSpace=wrap;html=1;" vertex="1" parent="1">
          <mxGeometry x="153.75" y="1090" width="132.5" height="50" as="geometry" />
        </mxCell>
        <mxCell id="VvSqDny1vrRmbwonDh9K-61" value="Конец" style="ellipse;whiteSpace=wrap;html=1;" vertex="1" parent="1">
          <mxGeometry x="182.5" y="1180" width="75" height="40" as="geometry" />
        </mxCell>
        <mxCell id="VvSqDny1vrRmbwonDh9K-62" value="Нет" style="text;html=1;align=center;verticalAlign=middle;resizable=0;points=[];autosize=1;strokeColor=none;fillColor=none;" vertex="1" parent="1">
          <mxGeometry x="250" y="178" width="40" height="30" as="geometry" />
        </mxCell>
        <mxCell id="VvSqDny1vrRmbwonDh9K-63" value="Да" style="text;html=1;align=center;verticalAlign=middle;resizable=0;points=[];autosize=1;strokeColor=none;fillColor=none;" vertex="1" parent="1">
          <mxGeometry x="180" y="238" width="40" height="30" as="geometry" />
        </mxCell>
      </root>
    </mxGraphModel>
  </diagram>
</mxfile>
